<svg width="60" height="60" viewBox="0 0 60 60" fill="none" xmlns="http://www.w3.org/2000/svg">
<path d="M7.5 7.5H52.5V18.4625H47.5V12.5H12.5V35H23.3325V40H7.5V7.5Z" fill="#699BF7"/>
<path d="M31.7099 25.7175C33.8949 28.03 35.7574 30 39.9999 30H44.9999C46.326 30 47.5978 30.5268 48.5355 31.4645C49.4731 32.4021 49.9999 33.6739 49.9999 35V37.5C49.9999 38.3777 49.7689 39.2399 49.33 39.9999C48.8912 40.76 48.26 41.3912 47.4999 41.83V55H39.9999V35C33.4574 35 30.1099 31.375 27.8999 28.9875C27.6003 28.6584 27.2944 28.335 26.9824 28.0175L30.5174 24.4825C30.9324 24.8992 31.3299 25.3108 31.7099 25.7175ZM47.4999 23.75C47.4999 24.7446 47.1048 25.6984 46.4016 26.4017C45.6983 27.1049 44.7445 27.5 43.7499 27.5C42.7554 27.5 41.8015 27.1049 41.0983 26.4017C40.395 25.6984 39.9999 24.7446 39.9999 23.75C39.9999 22.7554 40.395 21.8016 41.0983 21.0983C41.8015 20.3951 42.7554 20 43.7499 20C44.7445 20 45.6983 20.3951 46.4016 21.0983C47.1048 21.8016 47.4999 22.7554 47.4999 23.75Z" fill="#699BF7"/>
</svg>
