<svg width="60" height="60" viewBox="0 0 60 60" fill="none" xmlns="http://www.w3.org/2000/svg">
<path d="M6.1475 22.5C9.34 12.3575 18.84 5 30.0625 5C43.0575 5 53.7425 14.8675 55 27.5L50 26.4825M53.8525 37.5C52.2428 42.5795 49.0569 47.0142 44.7568 50.1608C40.4566 53.3074 35.2659 55.0025 29.9375 55C16.9425 55 6.2575 45.1325 5 32.5L10 33.5175" stroke="#699BF7" stroke-width="3.5" stroke-linecap="round" stroke-linejoin="round"/>
<path d="M22.505 33.8199V38.8C22.4993 39.2012 22.5953 39.5974 22.7842 39.9516C22.973 40.3057 23.2485 40.6062 23.585 40.8249C25.695 42.1449 27.2975 42.5324 30.0125 42.6149C32.515 42.6824 34.085 42.29 36.42 40.83C36.7621 40.6095 37.0426 40.3058 37.235 39.9471C37.4274 39.5885 37.5255 39.1869 37.52 38.78V33.8199M42.5275 27.5375V35.0749M17.625 27.11C18.53 25.2 24.1375 21.875 29.255 20.2325C29.7482 20.0757 30.2796 20.0881 30.765 20.2675C35.29 21.9225 40.325 24.43 42.1525 26.4625C43.105 27.525 42.1725 28.88 41.02 29.7175C38.6775 31.42 36.095 32.7424 30.875 34.7499C30.322 34.9618 29.711 34.9663 29.155 34.7624C23.805 32.7749 18.8 30.2125 17.6675 27.955C17.5974 27.8263 17.5572 27.6836 17.5498 27.5373C17.5425 27.391 17.5682 27.2449 17.625 27.11Z" stroke="#699BF7" stroke-width="3.5" stroke-linecap="round" stroke-linejoin="round"/>
</svg>
