<svg width="36" height="37" viewBox="0 0 36 37" fill="none" xmlns="http://www.w3.org/2000/svg">
<rect y="0.5" width="36" height="36" rx="8" fill="#275EAE"/>
<path d="M24.9669 22.0669C24.8037 21.8932 24.2278 21.3794 23.169 20.6997C22.1025 20.0141 21.3159 19.5866 21.0903 19.4869C21.0704 19.4781 21.0485 19.4749 21.0269 19.4776C21.0053 19.4803 20.9849 19.4888 20.9678 19.5022C20.6044 19.7857 19.9925 20.3063 19.9597 20.3344C19.7478 20.516 19.7478 20.516 19.5744 20.4594C19.2694 20.3594 18.3219 19.8563 17.4962 19.0288C16.6706 18.2013 16.1415 17.2304 16.0415 16.9257C15.9844 16.7519 15.9844 16.7519 16.1665 16.54C16.1947 16.5072 16.7156 15.8954 16.999 15.5322C17.0125 15.5151 17.021 15.4947 17.0237 15.4731C17.0264 15.4515 17.0232 15.4296 17.0144 15.4097C16.9147 15.1838 16.4872 14.3975 15.8015 13.331C15.1209 12.2725 14.6078 11.6966 14.434 11.5335C14.4181 11.5184 14.3984 11.508 14.377 11.5032C14.3556 11.4984 14.3333 11.4995 14.3125 11.5063C13.7051 11.715 13.1191 11.9813 12.5625 12.3016C12.0251 12.614 11.5164 12.9732 11.0422 13.375C11.0256 13.3891 11.0132 13.4074 11.0063 13.428C10.9993 13.4486 10.9981 13.4707 11.0028 13.4919C11.0681 13.7963 11.3803 15.0669 12.349 16.8269C13.3375 18.6232 14.0225 19.5435 15.474 20.99C16.9256 22.4366 17.875 23.1629 19.6731 24.1513C21.4331 25.12 22.7044 25.4325 23.0081 25.4972C23.0294 25.5018 23.0515 25.5006 23.0721 25.4937C23.0928 25.4868 23.1111 25.4744 23.1253 25.4579C23.5271 24.9837 23.8862 24.4749 24.1984 23.9375C24.5186 23.3809 24.7849 22.7949 24.9937 22.1875C25.0004 22.1669 25.0014 22.1448 24.9967 22.1236C24.992 22.1024 24.9817 22.0828 24.9669 22.0669Z" fill="#FEFEFE"/>
</svg>
