<svg width="23" height="23" viewBox="0 0 23 23" fill="none" xmlns="http://www.w3.org/2000/svg">
<g clip-path="url(#clip0_755_1573)">
<path d="M10.1304 6.20553C10.1304 4.46643 9.03203 2.9104 7.38447 2.36121V5.74787H4.63852V2.36121C2.99096 2.9104 1.89258 4.46643 1.89258 6.20553C1.89258 7.94463 2.99096 9.50066 4.63852 10.0499V20.1183C4.63852 20.4844 4.82159 20.6675 5.09618 20.6675H6.92681C7.2014 20.6675 7.38447 20.4844 7.38447 20.2098V10.1414C9.03203 9.59219 10.1304 8.03616 10.1304 6.20553ZM15.6223 7.8531C12.0526 7.94463 9.2151 10.7821 9.2151 14.2603C9.2151 17.83 12.0526 20.6675 15.6223 20.6675C19.192 20.6675 22.0295 17.83 22.0295 14.2603C22.0295 10.6906 19.192 7.8531 15.6223 7.8531ZM15.6223 18.8369C13.0594 18.8369 11.0457 16.8232 11.0457 14.2603C11.0457 11.6974 13.0594 9.68373 15.6223 9.68373C18.1852 9.68373 20.1989 11.6974 20.1989 14.2603C20.1989 16.8232 18.1852 18.8369 15.6223 18.8369ZM14.707 10.599V15.1756L18.0021 17.1893L18.7344 16.0909L16.08 14.5349V10.599H14.707Z" fill="#676767"/>
</g>
<defs>
<clipPath id="clip0_755_1573">
<rect width="21.9676" height="21.9676" fill="white" transform="translate(0.976562 0.530396)"/>
</clipPath>
</defs>
</svg>
