<svg width="23" height="23" viewBox="0 0 23 23" fill="none" xmlns="http://www.w3.org/2000/svg">
<path d="M11.2674 15.6535C10.9603 15.6537 10.6598 15.5636 10.4034 15.3946C10.1469 15.2256 9.94566 14.985 9.82463 14.7027C9.57149 14.6429 9.3223 14.5674 9.07852 14.4767L9.06518 14.472C8.34934 14.2033 7.68862 13.8061 7.11556 13.2999C6.34779 12.6226 5.75735 11.7677 5.39574 10.8099C5.03413 9.85208 4.91233 8.82033 5.04094 7.80462C5.16956 6.78891 5.5447 5.82009 6.13364 4.98262C6.72259 4.14515 7.50746 3.46447 8.41982 2.99993C9.33218 2.53538 10.3443 2.30108 11.368 2.31745C12.3917 2.33382 13.3959 2.60037 14.2929 3.09385C15.1899 3.58733 15.9526 4.29276 16.5145 5.14863C17.0764 6.0045 17.4203 6.98482 17.5164 8.00413C17.547 8.32815 17.281 8.59254 16.9555 8.59254C16.6307 8.59254 16.371 8.32815 16.3333 8.00491C16.2296 7.1131 15.8923 6.26448 15.3554 5.54483C14.8186 4.82518 14.1013 4.26001 13.276 3.90646C12.4507 3.5529 11.5467 3.4235 10.6554 3.53132C9.76409 3.63914 8.91703 3.98037 8.19986 4.52051C7.48269 5.06064 6.92083 5.78055 6.57108 6.60745C6.22133 7.43434 6.09608 8.33892 6.208 9.22974C6.31993 10.1206 6.66505 10.966 7.20849 11.6807C7.75192 12.3954 8.47441 12.9539 9.3029 13.2999L9.33429 13.3132C9.4912 13.3775 9.65229 13.4343 9.81757 13.4835C9.96871 13.1152 10.2542 12.8182 10.6161 12.6525C10.978 12.4868 11.3894 12.4649 11.7669 12.5912C12.1444 12.7174 12.4598 12.9824 12.6492 13.3325C12.8387 13.6826 12.8879 14.0916 12.7871 14.4767C12.7001 14.8136 12.5036 15.112 12.2286 15.325C11.9535 15.5381 11.6154 15.6536 11.2674 15.6535ZM5.77554 14.4767H6.69269C6.25405 14.1348 5.85463 13.7454 5.50173 13.3156C4.92878 13.3827 4.40043 13.6579 4.01701 14.0889C3.63359 14.5199 3.4218 15.0767 3.42188 15.6535V16.2145C3.42188 19.1315 6.72485 21.1454 11.2674 21.1454C15.81 21.1454 19.113 19.0209 19.113 16.2145V15.6535C19.113 15.0293 18.865 14.4306 18.4236 13.9893C17.9822 13.5479 17.3836 13.2999 16.7593 13.2999H13.8996C14.0133 13.6813 14.0428 14.0828 13.9859 14.4767H16.7593L16.8731 14.4822C17.1641 14.5105 17.4342 14.6461 17.6308 14.8626C17.8273 15.0792 17.9362 15.3611 17.9362 15.6535V16.2145L17.9322 16.3408C17.8224 18.3179 15.1322 19.9686 11.2674 19.9686C7.25757 19.9686 4.59871 18.3124 4.59871 16.2145V15.6535L4.6042 15.5398C4.63247 15.2487 4.76808 14.9786 4.98463 14.7821C5.20117 14.5856 5.48312 14.4767 5.77554 14.4767ZM15.1902 8.59254C15.1903 9.30318 14.9974 10.0005 14.6321 10.61C14.2667 11.2195 13.7426 11.7184 13.1158 12.0532C12.6102 11.5932 11.9511 11.3383 11.2674 11.3385C11.628 11.3385 11.9851 11.2675 12.3183 11.1295C12.6514 10.9915 12.9541 10.7892 13.2091 10.5342C13.4641 10.2792 13.6664 9.97652 13.8044 9.64337C13.9423 9.31022 14.0134 8.95315 14.0134 8.59254C14.0134 8.23194 13.9423 7.87487 13.8044 7.54172C13.6664 7.20856 13.4641 6.90585 13.2091 6.65087C12.9541 6.39588 12.6514 6.19362 12.3183 6.05562C11.9851 5.91762 11.628 5.8466 11.2674 5.8466C10.5392 5.8466 9.84072 6.1359 9.32576 6.65087C8.81079 7.16583 8.52149 7.86427 8.52149 8.59254C8.52149 9.32081 8.81079 10.0193 9.32576 10.5342C9.84072 11.0492 10.5392 11.3385 11.2674 11.3385C10.5551 11.3385 9.90701 11.6099 9.4198 12.054C8.79333 11.7194 8.26944 11.221 7.90404 10.612C7.59294 10.0937 7.40582 9.51051 7.35731 8.90797C7.30879 8.30542 7.40019 7.69981 7.62436 7.13842C7.84853 6.57702 8.19941 6.07503 8.64961 5.67162C9.09981 5.26822 9.63715 4.97432 10.2197 4.81286C10.8022 4.65141 11.4142 4.62676 12.0078 4.74086C12.6015 4.85495 13.1607 5.10469 13.6419 5.47059C14.123 5.83649 14.5132 6.30864 14.7817 6.8502C15.0503 7.39175 15.1901 7.98805 15.1902 8.59254Z" fill="#676767"/>
</svg>
