<svg width="23" height="23" viewBox="0 0 23 23" fill="none" xmlns="http://www.w3.org/2000/svg">
<path d="M17.9471 12.6465V9.90052C17.9471 6.87998 17.9471 5.36971 17.0089 4.43152C16.0707 3.49332 14.5604 3.49332 11.5399 3.49332H8.79392C5.77338 3.49332 4.26311 3.49332 3.32492 4.43152C2.38672 5.36971 2.38672 6.87998 2.38672 9.90052V14.4771C2.38672 17.4976 2.38672 19.0079 3.32492 19.9461C4.26311 20.8843 5.77338 20.8843 8.79392 20.8843H10.1669M14.7435 2.578V4.40863M10.1669 2.578V4.40863M5.59032 2.578V4.40863M12.4552 19.0537C12.4552 19.0537 13.3705 19.0537 14.2858 20.8843C14.2858 20.8843 17.1938 16.3077 19.7777 15.3924M6.50564 14.4771H10.1669M6.50564 9.90052H13.8282" stroke="#676767" stroke-width="1.31805" stroke-linecap="round" stroke-linejoin="round"/>
</svg>
