<svg width="29" height="23" viewBox="0 0 29 23" fill="none" xmlns="http://www.w3.org/2000/svg">
<g clip-path="url(#clip0_755_1554)">
<path d="M14.5618 6.56195C12.2869 6.56195 10.4428 8.71322 10.4428 11.3674C10.4428 14.021 12.2869 16.1728 14.5618 16.1728C16.8357 16.1728 18.6807 14.0219 18.6807 11.3674C18.6807 8.71322 16.8366 6.56195 14.5618 6.56195ZM16.278 13.7701C16.278 13.9597 16.1244 14.1133 15.9347 14.1133H13.1888C12.9991 14.1133 12.8455 13.9597 12.8455 13.7701V13.0836C12.8455 12.8939 12.9991 12.7403 13.1888 12.7403H13.8753V10.3616L13.8551 10.3749C13.8176 10.4 13.7756 10.4174 13.7314 10.4261C13.6871 10.4349 13.6416 10.4348 13.5974 10.426C13.5532 10.4172 13.5112 10.3997 13.4738 10.3746C13.4364 10.3495 13.4042 10.3172 13.3793 10.2797L12.9983 9.70863C12.9733 9.67114 12.9559 9.62909 12.9471 9.58488C12.9383 9.54067 12.9384 9.49516 12.9472 9.45097C12.9561 9.40677 12.9736 9.36475 12.9987 9.32732C13.0238 9.28988 13.056 9.25777 13.0935 9.23281L13.7513 8.79431C13.9204 8.68158 14.1191 8.62142 14.3223 8.62141H14.905C15.0946 8.62141 15.2482 8.77501 15.2482 8.96465V12.7403H15.9347C16.1244 12.7403 16.278 12.8939 16.278 13.0836V13.7701ZM26.9185 3.12952H2.205C1.44687 3.12952 0.832031 3.74435 0.832031 4.50249V18.2322C0.832031 18.9904 1.44687 19.6052 2.205 19.6052H26.9185C27.6766 19.6052 28.2915 18.9904 28.2915 18.2322V4.50249C28.2915 3.74435 27.6766 3.12952 26.9185 3.12952ZM26.232 14.7998C24.7153 14.7998 23.4861 16.029 23.4861 17.5457H5.63743C5.63743 16.029 4.4082 14.7998 2.89149 14.7998V7.93492C4.4082 7.93492 5.63743 6.70568 5.63743 5.18898H23.4861C23.4861 6.70568 24.7153 7.93492 26.232 7.93492V14.7998Z" fill="#676767"/>
</g>
<defs>
<clipPath id="clip0_755_1554">
<rect width="27.4594" height="21.9676" fill="white" transform="translate(0.832031 0.383789)"/>
</clipPath>
</defs>
</svg>
