<svg width="24" height="24" viewBox="0 0 24 24" fill="none" xmlns="http://www.w3.org/2000/svg">
<path d="M4.80039 3.59998C4.16387 3.59998 3.55342 3.85283 3.10333 4.30292C2.65325 4.75301 2.40039 5.36346 2.40039 5.99998V10.4052C2.74239 9.98277 3.14679 9.61317 3.60039 9.30958V5.99998C3.60039 5.68172 3.72682 5.37649 3.95186 5.15145C4.17691 4.9264 4.48213 4.79998 4.80039 4.79998H19.2004C19.5187 4.79998 19.8239 4.9264 20.0489 5.15145C20.274 5.37649 20.4004 5.68172 20.4004 5.99998V15.6C20.4004 15.9182 20.274 16.2235 20.0489 16.4485C19.8239 16.6735 19.5187 16.8 19.2004 16.8H11.0908C10.9994 16.9355 10.9025 17.0672 10.8004 17.1948V18H19.2004C19.8369 18 20.4474 17.7471 20.8974 17.297C21.3475 16.8469 21.6004 16.2365 21.6004 15.6V5.99998C21.6004 5.36346 21.3475 4.75301 20.8974 4.30292C20.4474 3.85283 19.8369 3.59998 19.2004 3.59998H4.80039ZM6.00039 7.79998C6.00039 7.64085 6.06361 7.48823 6.17613 7.37571C6.28865 7.26319 6.44126 7.19998 6.60039 7.19998H17.4004C17.5595 7.19998 17.7121 7.26319 17.8247 7.37571C17.9372 7.48823 18.0004 7.64085 18.0004 7.79998C18.0004 7.95911 17.9372 8.11172 17.8247 8.22424C17.7121 8.33676 17.5595 8.39998 17.4004 8.39998H6.60039C6.44126 8.39998 6.28865 8.33676 6.17613 8.22424C6.06361 8.11172 6.00039 7.95911 6.00039 7.79998ZM6.60039 18C5.48648 18 4.4182 17.5575 3.63054 16.7698C2.84289 15.9822 2.40039 14.9139 2.40039 13.8C2.40039 12.6861 2.84289 11.6178 3.63054 10.8301C4.4182 10.0425 5.48648 9.59998 6.60039 9.59998C7.7143 9.59998 8.78259 10.0425 9.57024 10.8301C10.3579 11.6178 10.8004 12.6861 10.8004 13.8C10.8004 14.9139 10.3579 15.9822 9.57024 16.7698C8.78259 17.5575 7.7143 18 6.60039 18ZM3.60039 18.2904C4.48845 18.8836 5.53245 19.2001 6.60039 19.2C7.71039 19.2 8.74239 18.864 9.60039 18.2904V21.6C9.60039 21.7114 9.56936 21.8206 9.51078 21.9154C9.4522 22.0102 9.36838 22.0868 9.26872 22.1366C9.16906 22.1865 9.05748 22.2076 8.94651 22.1975C8.83553 22.1875 8.72953 22.1468 8.64039 22.08L6.96039 20.82C6.85653 20.7421 6.73021 20.7 6.60039 20.7C6.47057 20.7 6.34425 20.7421 6.24039 20.82L4.56039 22.08C4.47125 22.1468 4.36525 22.1875 4.25427 22.1975C4.1433 22.2076 4.03173 22.1865 3.93206 22.1366C3.8324 22.0868 3.74858 22.0102 3.69 21.9154C3.63142 21.8206 3.60039 21.7114 3.60039 21.6V18.2904ZM12.6004 12C12.4413 12 12.2886 12.0632 12.1761 12.1757C12.0636 12.2882 12.0004 12.4408 12.0004 12.6C12.0004 12.7591 12.0636 12.9117 12.1761 13.0242C12.2886 13.1368 12.4413 13.2 12.6004 13.2H17.4004C17.5595 13.2 17.7121 13.1368 17.8247 13.0242C17.9372 12.9117 18.0004 12.7591 18.0004 12.6C18.0004 12.4408 17.9372 12.2882 17.8247 12.1757C17.7121 12.0632 17.5595 12 17.4004 12H12.6004Z" fill="#275EAE"/>
</svg>
