<svg width="52" height="52" viewBox="0 0 52 52" fill="none" xmlns="http://www.w3.org/2000/svg">
<path d="M8.66699 47.6666V34.8291C8.66699 34.1069 8.83888 33.4208 9.18266 32.7708C9.52644 32.1208 10.0045 31.5972 10.617 31.2L13.0003 29.6291C13.2531 32.6625 13.6503 35.2444 14.192 37.375C14.7337 39.5055 15.5823 41.8708 16.7378 44.4708L8.66699 47.6666ZM19.9878 43.3333C18.7239 40.95 17.785 38.4222 17.1712 35.75C16.5573 33.0777 16.2503 30.3152 16.2503 27.4625C16.2503 22.9486 17.1444 18.6969 18.9327 14.7073C20.7209 10.7177 23.0768 7.69308 26.0003 5.6333C28.9253 7.69163 31.2819 10.7163 33.0702 14.7073C34.8584 18.6983 35.7518 22.95 35.7503 27.4625C35.7503 30.2791 35.4434 33.0149 34.8295 35.6698C34.2156 38.3247 33.2767 40.8792 32.0128 43.3333H19.9878ZM26.0003 28.1666C27.192 28.1666 28.2125 27.7427 29.0618 26.8948C29.9112 26.0469 30.3351 25.0264 30.3337 23.8333C30.3322 22.6402 29.9083 21.6204 29.0618 20.774C28.2154 19.9275 27.1949 19.5029 26.0003 19.5C24.8058 19.4971 23.786 19.9217 22.941 20.774C22.096 21.6262 21.6713 22.646 21.667 23.8333C21.6627 25.0206 22.0873 26.0411 22.941 26.8948C23.7947 27.7485 24.8144 28.1724 26.0003 28.1666ZM43.3337 47.6666L35.2628 44.4708C36.4184 41.8708 37.267 39.5055 37.8087 37.375C38.3503 35.2444 38.7475 32.6625 39.0003 29.6291L41.3837 31.2C41.9975 31.5972 42.4764 32.1208 42.8202 32.7708C43.1639 33.4208 43.3351 34.1069 43.3337 34.8291V47.6666Z" fill="#699BF7"/>
</svg>
