<svg width="60" height="60" viewBox="0 0 60 60" fill="none" xmlns="http://www.w3.org/2000/svg">
<path d="M24.4762 40.4325L24.4725 40.4213L23.76 40.1888C20.3713 38.991 17.3983 36.8446 15.195 34.005C13.4133 31.7107 12.1891 29.0338 11.6189 26.1854C11.0487 23.337 11.1481 20.3951 11.9092 17.5918C12.6704 14.7884 14.0726 12.2002 16.005 10.0314C17.9375 7.86253 20.3475 6.17237 23.0449 5.0942C25.7423 4.01603 28.6533 3.57934 31.5483 3.81858C34.4433 4.05782 37.2431 4.96644 39.727 6.47278C42.2108 7.97911 44.3106 10.042 45.8609 12.4986C47.4111 14.9552 48.3693 17.7385 48.66 20.6288C48.7612 21.66 47.91 22.5 46.875 22.5C45.84 22.5 45.0112 21.6563 44.8875 20.6288C44.5528 17.9769 43.5156 15.4626 41.8832 13.3461C40.2508 11.2295 38.0824 9.58766 35.6026 8.5903C33.1227 7.59294 30.4214 7.27634 27.7781 7.67326C25.1348 8.07018 22.6456 9.1662 20.568 10.8479C18.4904 12.5296 16.9 14.736 15.9612 17.2386C15.0224 19.7412 14.7694 22.4492 15.2283 25.0825C15.6873 27.7157 16.8415 30.1784 18.5716 32.2159C20.3017 34.2534 22.5447 35.7916 25.0687 36.6713C25.7054 35.5101 26.7314 34.6107 27.9659 34.1316C29.2005 33.6525 30.5645 33.6243 31.8178 34.052C33.0711 34.4797 34.1334 35.3359 34.8174 36.4699C35.5015 37.6038 35.7636 38.9427 35.5575 40.2508C35.3515 41.559 34.6905 42.7525 33.6909 43.6212C32.6914 44.4899 31.4174 44.9781 30.0933 44.9998C28.7692 45.0215 27.4798 44.5753 26.4524 43.7399C25.4249 42.9044 24.7251 41.7332 24.4762 40.4325ZM21.5025 43.3388C17.8298 41.8393 14.6188 39.3955 12.195 36.255C11.5789 37.1789 11.2501 38.2645 11.25 39.375V41.25C11.25 48.6413 18.225 56.25 30 56.25C41.775 56.25 48.75 48.6413 48.75 41.25V39.375C48.75 37.8832 48.1574 36.4524 47.1025 35.3975C46.0476 34.3427 44.6168 33.75 43.125 33.75H37.5C38.2865 34.8004 38.8438 36.0043 39.1357 37.2836C39.4276 38.563 39.4477 39.8894 39.1946 41.177C38.9416 42.4646 38.421 43.6848 37.6667 44.7585C36.9123 45.8323 35.9409 46.7357 34.8154 47.4103C33.6898 48.0849 32.4352 48.5158 31.1327 48.6749C29.8301 48.8341 28.5086 48.718 27.2538 48.3342C25.9989 47.9505 24.8386 47.3075 23.8479 46.447C22.8572 45.5865 22.0581 44.5276 21.5025 43.3388ZM41.25 22.5C41.25 19.0725 39.7162 16.0013 37.2975 13.9388C36.1165 12.9385 34.7419 12.1926 33.2595 11.7478C31.7771 11.303 30.2189 11.1688 28.6823 11.3537C27.1457 11.5386 25.6637 12.0386 24.3292 12.8223C22.9946 13.6061 21.8361 14.6567 20.9262 15.9087C20.0162 17.1606 19.3743 18.5868 19.0407 20.0981C18.7071 21.6094 18.6889 23.1733 18.9873 24.6919C19.2856 26.2106 19.8941 27.6513 20.7747 28.9241C21.6553 30.1968 22.789 31.2742 24.105 32.0888C25.7725 30.7369 27.8534 29.9983 30 29.9963C32.1457 29.9962 34.2265 30.7321 35.895 32.0813C37.5315 31.0745 38.8829 29.6653 39.8203 27.988C40.7577 26.3108 41.2499 24.4214 41.25 22.5Z" fill="#699BF7"/>
</svg>
