<svg width="60" height="60" viewBox="0 0 60 60" fill="none" xmlns="http://www.w3.org/2000/svg">
<path d="M9.35714 15.4286C9.35714 12.8522 10.3806 10.3814 12.2024 8.5596C14.0242 6.73782 16.495 5.71436 19.0714 5.71436C21.6478 5.71436 24.1187 6.73782 25.9405 8.5596C27.7622 10.3814 28.7857 12.8522 28.7857 15.4286C28.7857 18.005 27.7622 20.4759 25.9405 22.2977C24.1187 24.1195 21.6478 25.1429 19.0714 25.1429C16.495 25.1429 14.0242 24.1195 12.2024 22.2977C10.3806 20.4759 9.35714 18.005 9.35714 15.4286ZM19.0714 9.35721C17.4612 9.35721 15.9169 9.99688 14.7783 11.1355C13.6397 12.2741 13 13.8184 13 15.4286C13 17.0389 13.6397 18.5832 14.7783 19.7218C15.9169 20.8604 17.4612 21.5001 19.0714 21.5001C20.6817 21.5001 22.226 20.8604 23.3646 19.7218C24.5032 18.5832 25.1429 17.0389 25.1429 15.4286C25.1429 13.8184 24.5032 12.2741 23.3646 11.1355C22.226 9.99688 20.6817 9.35721 19.0714 9.35721ZM33.6429 17.8572C33.6429 15.9249 34.4105 14.0718 35.7768 12.7054C37.1431 11.3391 38.9963 10.5715 40.9286 10.5715C42.8609 10.5715 44.714 11.3391 46.0804 12.7054C47.4467 14.0718 48.2143 15.9249 48.2143 17.8572C48.2143 19.7895 47.4467 21.6426 46.0804 23.009C44.714 24.3753 42.8609 25.1429 40.9286 25.1429C38.9963 25.1429 37.1431 24.3753 35.7768 23.009C34.4105 21.6426 33.6429 19.7895 33.6429 17.8572ZM40.9286 14.2144C39.9624 14.2144 39.0359 14.5982 38.3527 15.2813C37.6695 15.9645 37.2857 16.8911 37.2857 17.8572C37.2857 18.8234 37.6695 19.7499 38.3527 20.4331C39.0359 21.1163 39.9624 21.5001 40.9286 21.5001C41.8947 21.5001 42.8213 21.1163 43.5045 20.4331C44.1876 19.7499 44.5714 18.8234 44.5714 17.8572C44.5714 16.8911 44.1876 15.9645 43.5045 15.2813C42.8213 14.5982 41.8947 14.2144 40.9286 14.2144ZM4.5 35.4643C4.5 34.0151 5.0757 32.6253 6.10045 31.6005C7.1252 30.5758 8.51507 30.0001 9.96429 30.0001H28.1786C28.946 30.0001 29.677 30.1579 30.34 30.4445C29.4803 31.4111 28.7371 32.4845 28.1349 33.6429H9.96429C9.48121 33.6429 9.01793 33.8348 8.67634 34.1764C8.33476 34.518 8.14286 34.9813 8.14286 35.4643V36.0885L8.15986 36.2828C8.17686 36.4625 8.21571 36.7393 8.29343 37.0818C8.45371 37.7642 8.77429 38.6749 9.40814 39.5808C10.6054 41.2929 13.1894 43.3572 19.0714 43.3572C22.503 43.3572 24.8101 42.6529 26.3766 41.7301C26.4421 43.0318 26.6656 44.2922 27.0274 45.4943C24.9996 46.4172 22.3961 47 19.0714 47C12.2034 47 8.41 44.5108 6.42343 41.6693C5.38528 40.1769 4.73586 38.449 4.534 36.6422C4.51693 36.4759 4.50559 36.309 4.5 36.1419V35.4643ZM28.7857 40.9286C28.7857 44.4712 30.193 47.8686 32.6979 50.3735C35.2029 52.8785 38.6003 54.2858 42.1429 54.2858C45.6854 54.2858 49.0828 52.8785 51.5878 50.3735C54.0927 47.8686 55.5 44.4712 55.5 40.9286C55.5 37.3861 54.0927 33.9887 51.5878 31.4837C49.0828 28.9788 45.6854 27.5715 42.1429 27.5715C38.6003 27.5715 35.2029 28.9788 32.6979 31.4837C30.193 33.9887 28.7857 37.3861 28.7857 40.9286ZM49.4286 32.4286C49.7506 32.4286 50.0595 32.5566 50.2872 32.7843C50.5149 33.012 50.6429 33.3209 50.6429 33.6429V38.5001C50.6429 38.8221 50.5149 39.131 50.2872 39.3587C50.0595 39.5864 49.7506 39.7143 49.4286 39.7143H44.5714C44.2494 39.7143 43.9405 39.5864 43.7128 39.3587C43.4851 39.131 43.3571 38.8221 43.3571 38.5001C43.3571 38.178 43.4851 37.8691 43.7128 37.6414C43.9405 37.4137 44.2494 37.2858 44.5714 37.2858H47C46.4345 36.5317 45.7011 35.9197 44.8581 35.4982C44.015 35.0767 43.0854 34.8572 42.1429 34.8572C40.1199 34.8572 38.3251 35.8456 37.2201 37.3732C37.0284 37.6261 36.7453 37.7938 36.4315 37.8406C36.1176 37.8873 35.7979 37.8094 35.5408 37.6234C35.2837 37.4374 35.1096 37.1581 35.0558 36.8454C35.002 36.5326 35.0728 36.2113 35.253 35.9501C36.0409 34.8598 37.0762 33.9721 38.274 33.3599C39.4718 32.7477 40.7977 32.4286 42.1429 32.4286C44.5229 32.4286 46.6721 33.4073 48.2143 34.9786V33.6429C48.2143 33.3209 48.3422 33.012 48.5699 32.7843C48.7977 32.5566 49.1065 32.4286 49.4286 32.4286ZM36.0714 46.8786V48.2143C36.0714 48.5364 35.9435 48.8452 35.7158 49.073C35.4881 49.3007 35.1792 49.4286 34.8571 49.4286C34.5351 49.4286 34.2262 49.3007 33.9985 49.073C33.7708 48.8452 33.6429 48.5364 33.6429 48.2143V43.3572C33.6429 43.0351 33.7708 42.7263 33.9985 42.4986C34.2262 42.2708 34.5351 42.1429 34.8571 42.1429H39.7143C40.0363 42.1429 40.3452 42.2708 40.5729 42.4986C40.8006 42.7263 40.9286 43.0351 40.9286 43.3572C40.9286 43.6792 40.8006 43.9881 40.5729 44.2158C40.3452 44.4435 40.0363 44.5715 39.7143 44.5715H37.2857C38.3931 46.048 40.1587 47 42.1429 47C44.0031 47 45.6691 46.1646 46.7839 44.8435C46.9934 44.6035 47.2888 44.4556 47.6064 44.4314C47.924 44.4072 48.2384 44.5089 48.4818 44.7143C48.7252 44.9198 48.8781 45.2127 48.9076 45.5299C48.937 45.8471 48.8407 46.1631 48.6393 46.4099C47.8414 47.3556 46.8467 48.1157 45.7246 48.6371C44.6025 49.1585 43.3802 49.4286 42.1429 49.4286C41.0121 49.4288 39.8927 49.2033 38.8502 48.7655C37.8076 48.3276 36.863 47.6861 36.0714 46.8786Z" fill="#699BF7"/>
</svg>
