<svg width="34" height="35" viewBox="0 0 34 35" fill="none" xmlns="http://www.w3.org/2000/svg">
<g clip-path="url(#clip0_291_2556)">
<path d="M3.55571 27.514C3.07533 27.514 2.6608 27.3392 2.3121 26.9896C1.96341 26.64 1.78906 26.2259 1.78906 25.7474H6.81915C6.17834 25.7474 5.6437 25.5331 5.21525 25.1047C4.78681 24.6762 4.57212 24.1412 4.57119 23.4994V8.52042C4.57119 7.8796 4.78588 7.34497 5.21525 6.91652C5.64463 6.48808 6.1788 6.27339 6.81776 6.27246H27.3638C28.0037 6.27246 28.5378 6.48715 28.9663 6.91652C29.3947 7.3459 29.6094 7.88053 29.6104 8.52042V23.5008C29.6104 24.1407 29.3957 24.6753 28.9663 25.1047C28.5369 25.5341 28.0027 25.7483 27.3638 25.7474H32.3925C32.3925 26.2268 32.2181 26.6409 31.8694 26.9896C31.5208 27.3383 31.1067 27.5126 30.6272 27.5126L3.55571 27.514ZM17.0908 26.8185C17.3245 26.8185 17.5257 26.7336 17.6945 26.5639C17.8633 26.3942 17.9477 26.1934 17.9477 25.9616C17.9477 25.7297 17.8633 25.5285 17.6945 25.3579C17.5257 25.1872 17.3245 25.1038 17.0908 25.1075C16.8571 25.1112 16.6558 25.1951 16.4871 25.3593C16.3183 25.5234 16.2339 25.7246 16.2339 25.963C16.2339 26.2013 16.3183 26.4021 16.4871 26.5653C16.6558 26.7285 16.8571 26.8129 17.0908 26.8185ZM6.81915 24.3563H27.3638C27.5771 24.3563 27.7732 24.2673 27.9522 24.0892C28.1312 23.9112 28.2202 23.7146 28.2193 23.4994V8.52042C28.2193 8.3062 28.1303 8.10959 27.9522 7.93061C27.7742 7.75163 27.578 7.6626 27.3638 7.66353H6.81776C6.60446 7.66353 6.40832 7.75255 6.22934 7.93061C6.05036 8.10867 5.96133 8.30527 5.96226 8.52042V23.5008C5.96226 23.7141 6.05128 23.9102 6.22934 24.0892C6.4074 24.2682 6.60354 24.3572 6.81776 24.3563" fill="#676767"/>
</g>
<defs>
<clipPath id="clip0_291_2556">
<rect width="33.3856" height="33.3856" fill="white" transform="translate(0.397461 0.708496)"/>
</clipPath>
</defs>
</svg>
