<svg width="35" height="35" viewBox="0 0 35 35" fill="none" xmlns="http://www.w3.org/2000/svg">
<path d="M32.9169 25.9049V30.6743C32.9169 31.3068 32.6656 31.9133 32.2184 32.3605C31.7712 32.8077 31.1647 33.059 30.5322 33.059H25.7628M25.7628 2.05811H30.5322C31.1647 2.05811 31.7712 2.30935 32.2184 2.75656C32.6656 3.20378 32.9169 3.81033 32.9169 4.44279V9.21215M1.91602 9.21215V4.44279C1.91602 3.81033 2.16726 3.20378 2.61447 2.75656C3.06169 2.30935 3.66824 2.05811 4.3007 2.05811H9.07006M9.07006 33.059H4.3007C3.66824 33.059 3.06169 32.8077 2.61447 32.3605C2.16726 31.9133 1.91602 31.3068 1.91602 30.6743V25.9049M17.4165 16.3662C18.6814 16.3662 19.8945 15.8637 20.7889 14.9693C21.6833 14.0749 22.1858 12.8618 22.1858 11.5968C22.1858 10.3319 21.6833 9.11881 20.7889 8.22439C19.8945 7.32996 18.6814 6.82747 17.4165 6.82747C16.1515 6.82747 14.9384 7.32996 14.044 8.22439C13.1496 9.11881 12.6471 10.3319 12.6471 11.5968C12.6471 12.8618 13.1496 14.0749 14.044 14.9693C14.9384 15.8637 16.1515 16.3662 17.4165 16.3662ZM26.4854 27.0973C25.869 25.1764 24.6587 23.5009 23.0288 22.3122C21.399 21.1235 19.4338 20.483 17.4165 20.483C15.3992 20.483 13.4339 21.1235 11.8041 22.3122C10.1742 23.5009 8.96388 25.1764 8.3475 27.0973H26.4854Z" stroke="#676767" stroke-width="0.834639" stroke-linecap="round" stroke-linejoin="round"/>
</svg>
