<svg width="60" height="60" viewBox="0 0 60 60" fill="none" xmlns="http://www.w3.org/2000/svg">
<path d="M10 10C10 8.67392 10.5268 7.40215 11.4645 6.46447C12.4021 5.52678 13.6739 5 15 5H35C35.663 5.00014 36.2988 5.26363 36.7675 5.7325L49.2675 18.2325C49.7364 18.7012 49.9999 19.337 50 20V50C50 51.3261 49.4732 52.5979 48.5355 53.5355C47.5979 54.4732 46.3261 55 45 55H15C13.6739 55 12.4021 54.4732 11.4645 53.5355C10.5268 52.5979 10 51.3261 10 50V10ZM43.965 20L35 11.035V20H43.965ZM30 10H15V50H45V25H32.5C31.837 25 31.2011 24.7366 30.7322 24.2678C30.2634 23.7989 30 23.163 30 22.5V10ZM20 32.5C20 31.837 20.2634 31.2011 20.7322 30.7322C21.2011 30.2634 21.837 30 22.5 30H37.5C38.163 30 38.7989 30.2634 39.2678 30.7322C39.7366 31.2011 40 31.837 40 32.5C40 33.163 39.7366 33.7989 39.2678 34.2678C38.7989 34.7366 38.163 35 37.5 35H22.5C21.837 35 21.2011 34.7366 20.7322 34.2678C20.2634 33.7989 20 33.163 20 32.5ZM20 42.5C20 41.837 20.2634 41.2011 20.7322 40.7322C21.2011 40.2634 21.837 40 22.5 40H37.5C38.163 40 38.7989 40.2634 39.2678 40.7322C39.7366 41.2011 40 41.837 40 42.5C40 43.163 39.7366 43.7989 39.2678 44.2678C38.7989 44.7366 38.163 45 37.5 45H22.5C21.837 45 21.2011 44.7366 20.7322 44.2678C20.2634 43.7989 20 43.163 20 42.5Z" fill="#699BF7"/>
</svg>
