<svg width="52" height="52" viewBox="0 0 52 52" fill="none" xmlns="http://www.w3.org/2000/svg">
<path fill-rule="evenodd" clip-rule="evenodd" d="M50.0284 30.1688L35.2517 23.7642L20.4707 30.1688V42.0552H23.5755V34.4653L35.2517 39.5245L50.0284 33.1198V30.1688ZM25.9004 38.7987L25.9134 44.1937L35.2495 48.5703L44.6009 44.1937V38.7987L35.8497 42.4603L35.2517 42.7117L34.6515 42.4625L25.8982 38.8008L25.9004 38.7987Z" fill="#699BF7"/>
<path fill-rule="evenodd" clip-rule="evenodd" d="M14.6575 22.8822H28.1753L27.976 23.5322L17.3658 28.1299V31.7482L14.6575 22.8822ZM23.5755 37.9362L22.7781 40.5471C22.0101 40.6013 21.2396 40.6099 20.4706 40.573V30.1687L26.7843 27.4344L24.5115 34.8725L23.5755 34.4674V37.9362ZM27.6921 39.5504C27.1978 39.7199 26.6969 39.8696 26.1906 39.9989L26.4831 39.0455L27.6921 39.5504ZM31.3538 37.8387L27.378 36.114L30.5261 25.8115L35.2495 23.7662L40.1396 25.883C39.5371 28.3567 38.4508 30.6866 36.9432 32.7382C35.4356 34.7898 33.5367 36.5226 31.356 37.8365L31.3538 37.8387ZM26.1906 2.65855C30.0779 3.65538 33.5573 5.84016 36.1439 8.90838C38.7306 11.9766 40.2955 15.7754 40.6206 19.7752H31.421L26.1906 2.65855ZM28.1753 19.7752L22.7781 2.11255C21.8714 2.04907 20.9614 2.04907 20.0546 2.11255L14.6575 19.7774L28.1753 19.7752ZM2.21213 19.7752C2.53726 15.7754 4.10219 11.9766 6.68881 8.90838C9.27543 5.84016 12.7549 3.65538 16.6421 2.65855L11.4118 19.7752H2.20996H2.21213ZM16.6421 39.9967C12.7549 38.9999 9.27543 36.8151 6.68881 33.7469C4.10219 30.6787 2.53726 26.8799 2.21213 22.88H11.4118L16.6421 39.9967Z" fill="#699BF7"/>
</svg>
