<svg width="22" height="21" viewBox="0 0 22 21" fill="none" xmlns="http://www.w3.org/2000/svg">
<path d="M14.4915 5.99976H14.4995M17.4915 5.99976H17.4995M20.9995 5.78276C20.9995 8.42476 18.7605 10.5668 15.9995 10.5668C15.6742 10.5668 15.3518 10.5368 15.0325 10.4768C14.8025 10.4338 14.6875 10.4128 14.6075 10.4248C14.5275 10.4368 14.4135 10.4968 14.1875 10.6178C13.5404 10.9626 12.7958 11.0786 12.0745 10.9468C12.3502 10.6061 12.5371 10.2024 12.6185 9.77176C12.6685 9.50676 12.5445 9.24976 12.3585 9.06176C11.4907 8.19083 11.0022 7.01224 10.9995 5.78276C10.9995 3.14176 13.2385 0.999756 15.9995 0.999756C18.7605 0.999756 20.9995 3.14176 20.9995 5.78276ZM6.5015 19.9998H3.7175C3.3945 19.9998 3.0695 19.9538 2.7725 19.8268C1.8065 19.4118 1.3155 18.8628 1.0875 18.5198C1.02563 18.4247 0.995225 18.3127 1.00061 18.1994C1.00599 18.0862 1.04689 17.9775 1.1175 17.8888C2.2375 16.4008 4.8375 15.5028 6.50651 15.5028C8.1745 15.5028 10.7705 16.4008 11.8905 17.8888C12.0315 18.0758 12.0505 18.3248 11.9205 18.5198C11.6915 18.8628 11.2005 19.4118 10.2345 19.8268C9.93438 19.9475 9.61295 20.0064 9.28951 19.9998H6.5015ZM9.28551 10.2888C9.28498 10.6533 9.21266 11.0142 9.07266 11.3508C8.93267 11.6874 8.72775 11.9931 8.46961 12.2505C8.21146 12.5079 7.90514 12.712 7.56814 12.851C7.23114 12.99 6.87005 13.0613 6.50551 13.0608C5.76961 13.0613 5.06362 12.7696 4.5427 12.2498C4.02178 11.73 3.72857 11.0246 3.7275 10.2888C3.7279 9.92421 3.80009 9.5633 3.93996 9.22666C4.07983 8.89001 4.28464 8.5842 4.5427 8.32671C4.80075 8.06921 5.107 7.86506 5.44395 7.72592C5.7809 7.58677 6.14196 7.51536 6.50651 7.51576C6.87105 7.51536 7.23211 7.58677 7.56906 7.72592C7.90601 7.86506 8.21226 8.06921 8.47031 8.32671C8.72837 8.5842 8.93318 8.89001 9.07305 9.22666C9.21292 9.5633 9.28511 9.92421 9.28551 10.2888Z" stroke="#275EAE" stroke-width="1.5" stroke-linecap="round" stroke-linejoin="round"/>
</svg>
