<svg width="52" height="52" viewBox="0 0 52 52" fill="none" xmlns="http://www.w3.org/2000/svg">
<path d="M25.9997 4.33301C14.0527 4.33301 4.33301 14.0527 4.33301 25.9997V34.9762C4.33301 37.1948 6.27651 38.9997 8.66634 38.9997H10.833C11.4076 38.9997 11.9587 38.7714 12.3651 38.3651C12.7714 37.9587 12.9997 37.4076 12.9997 36.833V25.6898C12.9997 25.1152 12.7714 24.5641 12.3651 24.1578C11.9587 23.7514 11.4076 23.5232 10.833 23.5232H8.86567C10.0703 15.1382 17.2853 8.66634 25.9997 8.66634C34.714 8.66634 41.929 15.1382 43.1337 23.5232H41.1663C40.5917 23.5232 40.0406 23.7514 39.6343 24.1578C39.2279 24.5641 38.9997 25.1152 38.9997 25.6898V38.9997C38.9997 41.3895 37.0562 43.333 34.6663 43.333H30.333V41.1663H21.6663V47.6663H34.6663C39.446 47.6663 43.333 43.7793 43.333 38.9997C45.7228 38.9997 47.6663 37.1948 47.6663 34.9762V25.9997C47.6663 14.0527 37.9467 4.33301 25.9997 4.33301Z" fill="white"/>
</svg>
