<svg width="52" height="52" viewBox="0 0 52 52" fill="none" xmlns="http://www.w3.org/2000/svg">
<path d="M4.33301 45.4998V10.2915L15.1663 2.1665L25.9997 10.2915V15.1665H47.6663V45.4998H4.33301ZM8.66634 41.1665H12.9997V36.8332H8.66634V41.1665ZM8.66634 32.4998H12.9997V28.1665H8.66634V32.4998ZM8.66634 23.8332H12.9997V19.4998H8.66634V23.8332ZM8.66634 15.1665H12.9997V10.8332H8.66634V15.1665ZM17.333 15.1665H21.6663V10.8332H17.333V15.1665ZM17.333 41.1665H43.333V19.4998H17.333V41.1665ZM30.333 28.1665V23.8332H38.9997V28.1665H30.333ZM30.333 36.8332V32.4998H38.9997V36.8332H30.333ZM21.6663 28.1665V23.8332H25.9997V28.1665H21.6663ZM21.6663 36.8332V32.4998H25.9997V36.8332H21.6663Z" fill="#699BF7"/>
</svg>
